<svg width="24" height="24" viewBox="0 0 24 24" fill="none" xmlns="http://www.w3.org/2000/svg">
<path d="M21.1482 6.82677C21.0296 6.75514 20.8944 6.71518 20.7558 6.71072C20.6171 6.70627 20.4797 6.73749 20.3567 6.80136C20.3237 6.81844 20.292 6.83782 20.2618 6.85934L20.257 6.86411C20.1881 6.91383 20.1235 6.96938 20.0641 7.03013C19.5906 7.49958 18.8277 8.27645 18.3566 8.7475C18.3231 8.78179 18.2874 8.81389 18.2498 8.84361L18.237 8.85315C18.2019 8.82984 18.1691 8.80324 18.139 8.77371C18.0322 8.66806 17.927 8.56162 17.8201 8.45597C17.734 8.36939 17.6487 8.28281 17.5619 8.19702L17.2749 7.91105C16.9775 7.61476 16.6802 7.31768 16.3797 7.02457L16.3685 7.01583C16.293 6.92091 16.1969 6.84428 16.0875 6.79172C15.978 6.73916 15.8579 6.71204 15.7364 6.71239H15.7276C15.6017 6.71434 15.4779 6.74504 15.3657 6.80215C15.3328 6.81924 15.3011 6.83861 15.2709 6.86014L15.2653 6.8649C15.1967 6.91457 15.1325 6.96984 15.0732 7.03013C14.8547 7.24619 14.5749 7.52818 14.2912 7.81494L13.3346 8.76815C13.3048 8.79825 13.2731 8.82638 13.2397 8.85235C13.2063 8.82901 13.1753 8.8024 13.1472 8.77292C13.0404 8.66727 12.9352 8.56083 12.8284 8.45518L12.5701 8.19622L12.2831 7.91026C11.9858 7.61397 11.6885 7.31688 11.3871 7.02377C11.2498 6.87804 11.0723 6.77605 10.877 6.73066C10.8618 6.73066 10.8459 6.73066 10.8307 6.7251C10.8028 6.72014 10.7746 6.71669 10.7462 6.71477C10.7439 6.71437 10.7414 6.71437 10.7391 6.71477H10.7247C10.7151 6.71477 10.7056 6.71477 10.6952 6.71477C10.6825 6.71396 10.6697 6.71396 10.657 6.71477H10.6514H10.6314C10.6095 6.71699 10.5877 6.72044 10.5661 6.7251C10.5509 6.7251 10.5366 6.73463 10.5214 6.7386C10.3737 6.78469 10.2398 6.86657 10.1316 6.97691C9.98337 7.12227 9.81278 7.29464 9.63342 7.47178C9.26939 7.8393 8.90137 8.20576 8.52937 8.57115L8.27189 8.82693C8.26203 8.836 8.25165 8.84449 8.2408 8.85235L8.22884 8.84361C8.20706 8.82861 8.18653 8.81188 8.16746 8.79357C8.13239 8.7618 8.09811 8.72685 8.06463 8.69269L7.51699 8.14539C7.13967 7.76728 6.76156 7.39049 6.38265 7.01503C6.16662 6.80215 5.93704 6.70286 5.70348 6.71001C5.69047 6.70919 5.67742 6.70919 5.66442 6.71001H5.65963H5.6397C5.61774 6.71222 5.59591 6.71567 5.57434 6.72033C5.55919 6.72033 5.54484 6.72987 5.5297 6.73384C5.38182 6.78008 5.24767 6.86193 5.13909 6.97214C4.99162 7.1175 4.82024 7.28988 4.64167 7.46702C4.27445 7.83241 3.90697 8.19781 3.53922 8.56321L3.02027 9.08033C2.97222 9.12673 2.92773 9.17665 2.88715 9.22966L2.69265 9.42428C2.54159 9.5636 2.44925 9.75487 2.43428 9.95944C2.41931 10.164 2.48283 10.3666 2.612 10.5263C2.74118 10.686 2.92637 10.7908 3.13015 10.8197C3.33393 10.8485 3.54111 10.7992 3.70981 10.6817L3.71459 10.677C3.78355 10.6272 3.8481 10.5717 3.9075 10.5109C4.38419 10.0486 5.14547 9.27256 5.61738 8.80151C5.65115 8.76725 5.68681 8.7349 5.7242 8.7046L5.73935 8.69825C5.77469 8.72129 5.80755 8.74791 5.8374 8.77768C5.94421 8.88254 6.04944 8.98898 6.15626 9.09542C6.24235 9.182 6.32764 9.26859 6.41453 9.35517L6.70151 9.64113C6.99884 9.93742 7.29618 10.2337 7.5967 10.5268L7.60786 10.5364C7.68374 10.6308 7.78012 10.7069 7.88974 10.7589C7.99936 10.8109 8.11939 10.8375 8.2408 10.8366H8.24957C8.37469 10.835 8.49773 10.8045 8.60908 10.7477C8.64203 10.7306 8.67373 10.7112 8.70394 10.6897L8.70873 10.6849C8.77769 10.6352 8.84223 10.5796 8.90164 10.5189C9.11926 10.3028 9.39906 10.0208 9.68284 9.73487L10.6394 8.78166C10.6692 8.75183 10.7009 8.72397 10.7343 8.69825C10.7675 8.7218 10.7985 8.74839 10.8267 8.77768C10.9336 8.88254 11.0388 8.98898 11.1456 9.09542C11.2317 9.182 11.317 9.26859 11.4039 9.35517L11.6909 9.64113C11.9882 9.93742 12.2855 10.2337 12.5861 10.5268C12.7237 10.6726 12.9014 10.7749 13.097 10.8207C13.1122 10.8207 13.1281 10.8207 13.1433 10.8263C13.1712 10.8311 13.1994 10.8343 13.2278 10.8358H13.2325H13.2477C13.2573 10.8358 13.2668 10.8358 13.2764 10.8358H13.3154H13.321H13.341C13.3629 10.8335 13.3847 10.83 13.4063 10.8255C13.4215 10.8255 13.4358 10.816 13.451 10.812C13.5985 10.7654 13.7323 10.6836 13.8408 10.5737C13.9882 10.4283 14.1596 10.256 14.3374 10.0796C14.7057 9.71421 15.0737 9.34855 15.4414 8.98262L15.6989 8.72605C15.7101 8.71652 15.7212 8.70699 15.7292 8.70143C15.7336 8.70379 15.7379 8.70644 15.742 8.70937C15.7636 8.72429 15.7841 8.74075 15.8033 8.75862C15.8384 8.79119 15.8727 8.82534 15.9062 8.8595L16.4538 9.4076C16.8311 9.78518 17.2093 10.1617 17.5882 10.5372C17.8034 10.75 18.0338 10.8501 18.2673 10.843H18.3056H18.3112H18.3311C18.3531 10.8408 18.3749 10.8373 18.3965 10.8327C18.4116 10.8327 18.426 10.8231 18.4411 10.8191C18.5887 10.7728 18.7226 10.6909 18.8309 10.5808C18.9792 10.4355 19.1498 10.2631 19.3275 10.0868C19.6958 9.72136 20.0638 9.3557 20.4316 8.98977L20.9513 8.45995C20.9992 8.41304 21.0436 8.36288 21.0845 8.30981L21.279 8.11599C21.3716 8.03063 21.443 7.925 21.4876 7.80744C21.5323 7.68987 21.5489 7.56358 21.5363 7.43852C21.5236 7.31345 21.482 7.19303 21.4146 7.08673C21.3473 6.98044 21.2561 6.89117 21.1482 6.82598V6.82677Z" fill="#262626"/>
<path d="M21.1483 17.6592C21.0296 17.7309 20.8945 17.7708 20.7558 17.7753C20.6172 17.7797 20.4797 17.7485 20.3567 17.6847C20.3238 17.6676 20.2921 17.6482 20.2618 17.6267L20.2571 17.6219C20.1881 17.5722 20.1236 17.5166 20.0642 17.4559C19.5906 16.9864 18.8278 16.2096 18.3567 15.7385C18.3229 15.7043 18.2872 15.6719 18.2498 15.6416L18.2371 15.6321C18.2017 15.6551 18.1689 15.6817 18.139 15.7115C18.0322 15.8172 17.927 15.9236 17.8202 16.0292C17.7341 16.1158 17.6488 16.2032 17.5619 16.289L17.2749 16.575C16.9776 16.8712 16.6803 17.1683 16.3797 17.4614L16.3686 17.4702C16.2927 17.5646 16.1963 17.6407 16.0867 17.6927C15.9771 17.7447 15.857 17.7713 15.7356 17.7704H15.7269C15.6009 17.7685 15.4771 17.7378 15.365 17.6807C15.332 17.6636 15.3003 17.6442 15.2701 17.6227L15.2645 17.6179C15.196 17.568 15.1317 17.5125 15.0724 17.4519C14.854 17.2358 14.5742 16.9539 14.2904 16.6671L13.3338 15.7139C13.3041 15.6838 13.2724 15.6557 13.239 15.6297C13.2056 15.653 13.1746 15.6796 13.1465 15.7091C13.0397 15.8148 12.9345 15.9212 12.8276 16.0269L12.5694 16.2866L12.2824 16.5726C11.9851 16.8689 11.6877 17.1659 11.3864 17.4591C11.2489 17.6045 11.0715 17.7065 10.8762 17.7522C10.8611 17.7522 10.8451 17.7522 10.83 17.7577C10.8013 17.7577 10.7734 17.7673 10.7455 17.7681H10.7383H10.724C10.7144 17.7681 10.7048 17.7681 10.6945 17.7681H10.6562H10.6506H10.6307C10.6087 17.7658 10.5869 17.7624 10.5653 17.7577C10.5502 17.7577 10.5358 17.7482 10.5207 17.7442C10.3731 17.6978 10.2393 17.616 10.1309 17.5059C9.98262 17.3606 9.81203 17.1882 9.63267 17.0111L8.52942 15.9149L8.27194 15.6583L8.24085 15.6337L8.22889 15.6416C8.20727 15.6565 8.18676 15.673 8.16751 15.6909C8.13244 15.7234 8.09816 15.7584 8.06468 15.7925L7.51704 16.3398C7.13999 16.7171 6.76294 17.0953 6.3827 17.4694C6.16667 17.6831 5.93709 17.7824 5.70353 17.7752C5.68997 17.7752 5.67722 17.7752 5.66446 17.7752H5.65968H5.63975C5.61779 17.773 5.59596 17.7695 5.57439 17.7649C5.55924 17.7649 5.54489 17.7554 5.52975 17.7514C5.38201 17.7048 5.24792 17.623 5.13914 17.5131C4.99167 17.3677 4.82028 17.1953 4.64172 17.0182L3.53927 15.922L3.02032 15.4049C2.97228 15.3582 2.92778 15.308 2.8872 15.2548L2.69509 15.053C2.54403 14.9137 2.45169 14.7224 2.43672 14.5178C2.42175 14.3133 2.48527 14.1107 2.61445 13.951C2.74362 13.7913 2.92881 13.6864 3.13259 13.6576C3.33637 13.6287 3.54355 13.678 3.71225 13.7956L3.71703 13.8003C3.786 13.85 3.85054 13.9056 3.90994 13.9663C4.38424 14.4366 5.14552 15.2119 5.61743 15.6885C5.6512 15.7227 5.68686 15.7551 5.72425 15.7854L5.73701 15.7949C5.77235 15.7719 5.8052 15.7453 5.83505 15.7155C5.94187 15.6098 6.0471 15.5034 6.15391 15.3977C6.24001 15.312 6.3253 15.2246 6.41219 15.1388L6.69916 14.8528C6.9965 14.5565 7.29384 14.2595 7.59436 13.9663L7.60552 13.9576C7.6814 13.8632 7.77777 13.7871 7.8874 13.7351C7.99702 13.6831 8.11705 13.6565 8.23846 13.6573H8.24723C8.37316 13.6593 8.49697 13.69 8.60913 13.7471C8.64208 13.7642 8.67378 13.7836 8.70399 13.8051L8.70877 13.8099C8.77774 13.8596 8.84228 13.9151 8.90168 13.9759C9.11931 14.1919 9.39911 14.4731 9.68289 14.7599L10.6395 15.7131C10.6692 15.7432 10.7009 15.7713 10.7343 15.7973C10.7676 15.7737 10.7985 15.7471 10.8268 15.7179C10.9336 15.6122 11.0388 15.5058 11.1457 15.4001C11.2317 15.3143 11.317 15.227 11.4039 15.1412L11.6909 14.8552C11.9882 14.5589 12.2856 14.2618 12.5861 13.9687C12.724 13.8234 12.9017 13.7215 13.0971 13.6756C13.1122 13.6756 13.1282 13.6756 13.1433 13.67C13.1713 13.665 13.1995 13.6615 13.2278 13.6597H13.2326H13.2477H13.2764C13.29 13.6597 13.3035 13.6597 13.3155 13.6597H13.3211H13.341C13.363 13.6621 13.3848 13.6655 13.4064 13.67C13.4215 13.67 13.4359 13.6796 13.451 13.6836C13.5985 13.7301 13.7323 13.8119 13.8408 13.9219C13.9883 14.0672 14.1597 14.2396 14.3374 14.4159C14.7057 14.7813 15.0737 15.147 15.4415 15.5129L15.699 15.7695L15.7293 15.7941L15.742 15.7862C15.7636 15.7713 15.7842 15.7548 15.8034 15.7369C15.8385 15.7044 15.8727 15.6694 15.9062 15.6353L16.4539 15.0879C16.8309 14.7106 17.208 14.3325 17.5882 13.9584C17.8034 13.7447 18.0338 13.6454 18.2674 13.6526H18.3056H18.3112H18.3312C18.3531 13.6548 18.3749 13.6582 18.3965 13.6629C18.4117 13.6629 18.426 13.6724 18.4412 13.6764C18.5887 13.7228 18.7226 13.8046 18.831 13.9147C18.9792 14.0601 19.1498 14.2324 19.3276 14.4088C19.6959 14.7742 20.0639 15.1398 20.4316 15.5058L20.9506 16.0229C20.9984 16.0698 21.0429 16.12 21.0837 16.173L21.2782 16.3668C21.3708 16.4522 21.4422 16.5578 21.4869 16.6754C21.5315 16.793 21.5482 16.9192 21.5355 17.0443C21.5228 17.1694 21.4812 17.2898 21.4139 17.3961C21.3465 17.5024 21.2553 17.5917 21.1475 17.6569L21.1483 17.6592Z" fill="#262626"/>
<path d="M5.72417 13.0552C6.17455 13.0552 6.53966 12.6914 6.53966 12.2426C6.53966 11.7938 6.17455 11.43 5.72417 11.43C5.2738 11.43 4.90869 11.7938 4.90869 12.2426C4.90869 12.6914 5.2738 13.0552 5.72417 13.0552Z" fill="#262626"/>
<path d="M10.7369 13.0552C11.1872 13.0552 11.5524 12.6914 11.5524 12.2426C11.5524 11.7938 11.1872 11.43 10.7369 11.43C10.2865 11.43 9.92139 11.7938 9.92139 12.2426C9.92139 12.6914 10.2865 13.0552 10.7369 13.0552Z" fill="#262626"/>
<path d="M15.7427 13.0552C16.1931 13.0552 16.5582 12.6914 16.5582 12.2426C16.5582 11.7938 16.1931 11.43 15.7427 11.43C15.2924 11.43 14.9272 11.7938 14.9272 12.2426C14.9272 12.6914 15.2924 13.0552 15.7427 13.0552Z" fill="#262626"/>
<path d="M20.7491 13.0552C21.1995 13.0552 21.5646 12.6914 21.5646 12.2426C21.5646 11.7938 21.1995 11.43 20.7491 11.43C20.2987 11.43 19.9336 11.7938 19.9336 12.2426C19.9336 12.6914 20.2987 13.0552 20.7491 13.0552Z" fill="#262626"/>
</svg>
