<svg width="85" height="24" viewBox="0 0 85 24" fill="none" xmlns="http://www.w3.org/2000/svg">
<g clip-path="url(#clip0)">
<path d="M26.7096 5.43654C26.5597 5.34648 26.3891 5.29624 26.2139 5.29064C26.0388 5.28504 25.8652 5.32428 25.7099 5.40458C25.6683 5.42606 25.6282 5.45042 25.5901 5.47748L25.584 5.48347C25.4969 5.54598 25.4154 5.61581 25.3404 5.69218C24.7424 6.28237 23.7789 7.25903 23.1839 7.85122C23.1416 7.89432 23.0965 7.93468 23.049 7.97205L23.0329 7.98403C22.9885 7.95474 22.947 7.9213 22.909 7.88417C22.7741 7.75135 22.6412 7.61754 22.5063 7.48472C22.3976 7.37587 22.2899 7.26702 22.1801 7.15917L21.8177 6.79966C21.4422 6.42717 21.0666 6.05369 20.6871 5.68519L20.673 5.67421C20.5777 5.55487 20.4563 5.45854 20.318 5.39247C20.1797 5.32639 20.0281 5.29229 19.8746 5.29273H19.8635C19.7045 5.29518 19.5481 5.33379 19.4065 5.40558C19.3649 5.42706 19.3248 5.45142 19.2867 5.47848L19.2796 5.48447C19.1931 5.54691 19.1119 5.61639 19.037 5.69218C18.7611 5.96381 18.4077 6.31832 18.0493 6.67883L16.8412 7.87718C16.8036 7.91502 16.7636 7.95038 16.7214 7.98303C16.6792 7.95369 16.6401 7.92024 16.6046 7.88317C16.4697 7.75035 16.3368 7.61654 16.2019 7.48372L15.8757 7.15817L15.5133 6.79866C15.1377 6.42618 14.7622 6.05269 14.3817 5.6842C14.2083 5.50098 13.9841 5.37277 13.7373 5.3157C13.7182 5.3157 13.6981 5.3157 13.6789 5.30871C13.6436 5.30248 13.608 5.29815 13.5722 5.29573C13.5692 5.29523 13.5662 5.29523 13.5632 5.29573H13.545C13.533 5.29573 13.5209 5.29573 13.5078 5.29573C13.4917 5.29471 13.4756 5.29471 13.4595 5.29573H13.4524H13.4272C13.3995 5.29852 13.3719 5.30285 13.3447 5.30871C13.3256 5.30871 13.3074 5.3207 13.2883 5.32569C13.1018 5.38363 12.9326 5.48657 12.796 5.62528C12.6087 5.80803 12.3933 6.02473 12.1668 6.24742C11.707 6.70945 11.2422 7.17015 10.7724 7.62952L10.4472 7.95108C10.4348 7.96248 10.4216 7.97315 10.4079 7.98303L10.3928 7.97205C10.3653 7.95319 10.3394 7.93215 10.3153 7.90914C10.271 7.86919 10.2277 7.82525 10.1854 7.78231L9.49379 7.09426C9.01725 6.61891 8.5397 6.14523 8.06115 5.67321C7.78831 5.40558 7.49836 5.28075 7.20338 5.28974C7.18695 5.28872 7.17048 5.28872 7.15405 5.28974H7.14801H7.12284C7.0951 5.29252 7.06753 5.29686 7.04028 5.30272C7.02115 5.30272 7.00303 5.3147 6.9839 5.3197C6.79714 5.37783 6.62771 5.48073 6.49058 5.61928C6.30433 5.80203 6.08788 6.01874 5.86236 6.24143C5.39857 6.7008 4.93445 7.16017 4.46999 7.61953L3.81458 8.26964C3.7539 8.32797 3.6977 8.39073 3.64645 8.45738L3.4008 8.70205C3.21003 8.8772 3.0934 9.11766 3.0745 9.37483C3.05559 9.632 3.13581 9.8867 3.29895 10.0875C3.46209 10.2882 3.69598 10.42 3.95335 10.4563C4.21072 10.4926 4.47238 10.4306 4.68544 10.2829L4.69148 10.2769C4.77858 10.2144 4.8601 10.1445 4.93512 10.0682C5.53717 9.48697 6.49864 8.51131 7.09465 7.91912C7.13729 7.87605 7.18233 7.83538 7.22956 7.79729L7.24868 7.7893C7.29332 7.81827 7.33482 7.85173 7.37252 7.88916C7.50742 8.02098 7.64032 8.1548 7.77523 8.28861C7.88396 8.39746 7.99168 8.50631 8.10142 8.61516L8.46386 8.97467C8.83938 9.34716 9.21491 9.71965 9.59446 10.0881L9.60856 10.1001C9.70439 10.2189 9.82611 10.3145 9.96456 10.3799C10.103 10.4453 10.2546 10.4787 10.4079 10.4776H10.419C10.577 10.4755 10.7324 10.4373 10.8731 10.3658C10.9147 10.3443 10.9547 10.3199 10.9929 10.2929L10.9989 10.2869C11.086 10.2244 11.1675 10.1545 11.2425 10.0782C11.5174 9.80653 11.8708 9.45201 12.2292 9.09251L13.4373 7.89416C13.4749 7.85666 13.5149 7.82163 13.5571 7.7893C13.5991 7.81891 13.6382 7.85234 13.6739 7.88916C13.8088 8.02098 13.9417 8.1548 14.0766 8.28861C14.1853 8.39746 14.2931 8.50631 14.4028 8.61516L14.7652 8.97467C15.1408 9.34716 15.5163 9.71965 15.8958 10.0881C16.0697 10.2715 16.2942 10.4 16.5412 10.4576C16.5603 10.4576 16.5805 10.4576 16.5996 10.4646C16.6349 10.4706 16.6705 10.4746 16.7063 10.4766H16.7123H16.7315C16.7436 10.4766 16.7556 10.4766 16.7677 10.4766H16.817H16.8241H16.8493C16.877 10.4737 16.9045 10.4693 16.9318 10.4636C16.9509 10.4636 16.9691 10.4516 16.9882 10.4466C17.1745 10.3881 17.3435 10.2853 17.4805 10.1471C17.6668 9.96431 17.8832 9.74761 18.1077 9.52591C18.5729 9.06654 19.0377 8.60684 19.5021 8.14681L19.8273 7.82425C19.8414 7.81227 19.8555 7.80029 19.8656 7.7933C19.8711 7.79626 19.8765 7.7996 19.8817 7.80328C19.909 7.82204 19.9349 7.84274 19.9592 7.8652C20.0035 7.90614 20.0468 7.94908 20.0891 7.99202L20.7807 8.68107C21.2572 9.15575 21.7348 9.6291 22.2133 10.1011C22.4852 10.3688 22.7761 10.4946 23.0711 10.4856H23.1194H23.1265H23.1517C23.1794 10.4828 23.207 10.4785 23.2342 10.4726C23.2533 10.4726 23.2715 10.4606 23.2906 10.4556C23.477 10.3973 23.646 10.2944 23.7829 10.156C23.9702 9.9733 24.1856 9.7566 24.4101 9.5349C24.8752 9.07553 25.34 8.61583 25.8045 8.1558L26.4609 7.48971C26.5213 7.43075 26.5775 7.36768 26.629 7.30097L26.8747 7.05731C26.9916 6.94999 27.0819 6.8172 27.1383 6.6694C27.1947 6.5216 27.2157 6.36283 27.1997 6.2056C27.1837 6.04837 27.1311 5.89698 27.046 5.76334C26.961 5.62971 26.8458 5.5175 26.7096 5.43554V5.43654Z" fill="#262626"/>
<path d="M26.7095 19.0548C26.5597 19.1449 26.389 19.1951 26.2139 19.2007C26.0388 19.2063 25.8651 19.1671 25.7098 19.0868C25.6682 19.0653 25.6281 19.0409 25.59 19.0139L25.5839 19.0079C25.4968 18.9454 25.4153 18.8755 25.3403 18.7992C24.7423 18.209 23.7788 17.2323 23.1838 16.6401C23.1411 16.5971 23.0961 16.5564 23.0489 16.5183L23.0328 16.5063C22.9881 16.5353 22.9466 16.5687 22.9089 16.6062C22.774 16.739 22.6411 16.8728 22.5062 17.0056C22.3975 17.1145 22.2898 17.2243 22.18 17.3322L21.8176 17.6917C21.4421 18.0642 21.0665 18.4377 20.687 18.8061L20.6729 18.8171C20.5771 18.9359 20.4553 19.0315 20.3169 19.0969C20.1784 19.1623 20.0269 19.1957 19.8735 19.1946H19.8624C19.7034 19.1922 19.547 19.1536 19.4054 19.0818C19.3638 19.0603 19.3237 19.0359 19.2856 19.0089L19.2785 19.0029C19.1919 18.9401 19.1108 18.8703 19.0359 18.7942C18.76 18.5225 18.4067 18.168 18.0482 17.8075L16.8401 16.6092C16.8026 16.5713 16.7625 16.536 16.7203 16.5033C16.6781 16.5327 16.639 16.5661 16.6035 16.6032C16.4686 16.736 16.3357 16.8698 16.2008 17.0026L15.8746 17.3292L15.5122 17.6887C15.1367 18.0612 14.7611 18.4347 14.3806 18.8031C14.2069 18.986 13.9828 19.1142 13.7362 19.1716C13.7171 19.1716 13.697 19.1716 13.6778 19.1786C13.6416 19.1786 13.6064 19.1906 13.5711 19.1916H13.5621H13.5439C13.5319 19.1916 13.5198 19.1916 13.5067 19.1916H13.4584H13.4513H13.4261C13.3984 19.1888 13.3708 19.1845 13.3436 19.1786C13.3245 19.1786 13.3063 19.1667 13.2872 19.1617C13.1008 19.1033 12.9318 19.0005 12.7949 18.8621C12.6076 18.6793 12.3922 18.4626 12.1657 18.2399L10.7723 16.8618L10.4471 16.5393L10.4078 16.5083L10.3927 16.5183C10.3654 16.5371 10.3395 16.5577 10.3152 16.5802C10.2709 16.6212 10.2276 16.6651 10.1853 16.708L9.4937 17.3961C9.01749 17.8704 8.54129 18.3458 8.06106 18.8161C7.78822 19.0848 7.49827 19.2096 7.20329 19.2006C7.18617 19.2006 7.17007 19.2006 7.15396 19.2006H7.14792H7.12275C7.09501 19.1978 7.06744 19.1935 7.04019 19.1876C7.02106 19.1876 7.00294 19.1756 6.98381 19.1706C6.79722 19.1121 6.62787 19.0093 6.49049 18.8711C6.30424 18.6883 6.08779 18.4716 5.86227 18.2489L4.4699 16.8708L3.81449 16.2207C3.75382 16.162 3.69762 16.0989 3.64636 16.032L3.40373 15.7783C3.21296 15.6032 3.09633 15.3627 3.07743 15.1055C3.05852 14.8484 3.13874 14.5937 3.30188 14.3929C3.46502 14.1922 3.69891 14.0603 3.95628 14.024C4.21365 13.9878 4.47531 14.0498 4.68837 14.1975L4.69441 14.2035C4.78151 14.266 4.86303 14.3358 4.93805 14.4122C5.53708 15.0034 6.49855 15.978 7.09456 16.5772C7.1372 16.6203 7.18224 16.661 7.22947 16.699L7.24557 16.711C7.29021 16.6821 7.33171 16.6486 7.36941 16.6112C7.50431 16.4783 7.63721 16.3445 7.77212 16.2117C7.88085 16.1039 7.98857 15.994 8.09831 15.8862L8.46075 15.5267C8.83627 15.1542 9.2118 14.7807 9.59135 14.4122L9.60545 14.4012C9.70128 14.2825 9.823 14.1868 9.96145 14.1214C10.0999 14.0561 10.2515 14.0227 10.4048 14.0237H10.4159C10.575 14.0262 10.7313 14.0648 10.873 14.1366C10.9146 14.1581 10.9546 14.1824 10.9928 14.2095L10.9988 14.2155C11.0859 14.278 11.1674 14.3478 11.2425 14.4242C11.5173 14.6958 11.8707 15.0493 12.2291 15.4098L13.4372 16.6082C13.4748 16.646 13.5148 16.6814 13.557 16.714C13.599 16.6844 13.6381 16.651 13.6738 16.6142C13.8087 16.4813 13.9416 16.3475 14.0765 16.2147C14.1853 16.1069 14.293 15.997 14.4027 15.8892L14.7652 15.5297C15.1407 15.1572 15.5162 14.7837 15.8958 14.4152C16.07 14.2325 16.2943 14.1044 16.5411 14.0467C16.5602 14.0467 16.5804 14.0467 16.5995 14.0397C16.6348 14.0334 16.6704 14.029 16.7062 14.0267H16.7123H16.7314H16.7676C16.7847 14.0267 16.8019 14.0267 16.817 14.0267H16.824H16.8492C16.8769 14.0297 16.9044 14.034 16.9317 14.0397C16.9509 14.0397 16.969 14.0517 16.9881 14.0567C17.1744 14.1152 17.3434 14.2181 17.4804 14.3563C17.6667 14.539 17.8831 14.7557 18.1076 14.9774C18.5728 15.4368 19.0376 15.8965 19.502 16.3565L19.8272 16.6791L19.8655 16.71L19.8816 16.7C19.9089 16.6813 19.9348 16.6606 19.9591 16.6381C20.0034 16.5972 20.0467 16.5532 20.089 16.5103L20.7806 15.8223C21.2568 15.3479 21.733 14.8726 22.2133 14.4022C22.4851 14.1336 22.776 14.0087 23.071 14.0177H23.1194H23.1264H23.1516C23.1793 14.0205 23.2069 14.0249 23.2341 14.0307C23.2533 14.0307 23.2714 14.0427 23.2905 14.0477C23.4769 14.106 23.646 14.2089 23.7828 14.3473C23.9701 14.53 24.1855 14.7467 24.41 14.9684C24.8752 15.4278 25.34 15.8875 25.8044 16.3475L26.4598 16.9976C26.5202 17.0566 26.5764 17.1197 26.628 17.1864L26.8736 17.43C26.9906 17.5374 27.0808 17.6701 27.1372 17.8179C27.1936 17.9657 27.2146 18.1245 27.1986 18.2817C27.1826 18.439 27.13 18.5904 27.0449 18.724C26.9599 18.8576 26.8447 18.9698 26.7085 19.0518L26.7095 19.0548Z" fill="#262626"/>
<path d="M7.22963 13.2668C7.79845 13.2668 8.25956 12.8094 8.25956 12.2452C8.25956 11.681 7.79845 11.2236 7.22963 11.2236C6.66082 11.2236 6.19971 11.681 6.19971 12.2452C6.19971 12.8094 6.66082 13.2668 7.22963 13.2668Z" fill="#262626"/>
<path d="M13.5602 13.2668C14.129 13.2668 14.5901 12.8094 14.5901 12.2452C14.5901 11.681 14.129 11.2236 13.5602 11.2236C12.9914 11.2236 12.5303 11.681 12.5303 12.2452C12.5303 12.8094 12.9914 13.2668 13.5602 13.2668Z" fill="#262626"/>
<path d="M19.883 13.2668C20.4518 13.2668 20.9129 12.8094 20.9129 12.2452C20.9129 11.681 20.4518 11.2236 19.883 11.2236C19.3141 11.2236 18.853 11.681 18.853 12.2452C18.853 12.8094 19.3141 13.2668 19.883 13.2668Z" fill="#262626"/>
<path d="M26.2052 13.2668C26.774 13.2668 27.2351 12.8094 27.2351 12.2452C27.2351 11.681 26.774 11.2236 26.2052 11.2236C25.6364 11.2236 25.1753 11.681 25.1753 12.2452C25.1753 12.8094 25.6364 13.2668 26.2052 13.2668Z" fill="#262626"/>
<path d="M53.9005 13.2098C54.5398 12.9462 55.4107 12.8104 56.4759 12.8104C57.0697 12.808 57.6629 12.773 58.2528 12.7055C59.8314 12.5288 60.8835 12.0065 61.4745 11.1147C61.8005 10.6002 61.9825 10.0088 62.0018 9.40136C62.0211 8.79393 61.877 8.19236 61.5842 7.65848C61.305 7.14997 60.9162 6.70876 60.4456 6.36626C59.9462 6.00941 59.3878 5.74207 58.7955 5.57634C57.1182 5.08602 55.3171 5.23581 53.8623 5.98877C52.333 6.77669 51.1681 8.30359 50.6668 10.176C50.0728 12.397 50.5298 15.0204 51.8326 16.8578C52.8837 18.3398 54.6626 19.1906 56.7155 19.1906C57.6759 19.2038 58.6262 18.9949 59.4911 18.5805C60.1377 18.2646 60.7266 17.844 61.2339 17.3362C61.3147 17.2543 61.3798 17.1585 61.4262 17.0536C61.516 16.8884 61.561 16.7028 61.5568 16.5152C61.5526 16.3275 61.4993 16.1442 61.4022 15.9831C61.305 15.822 61.1674 15.6887 61.0027 15.5963C60.838 15.5038 60.6519 15.4554 60.4627 15.4558C60.2425 15.4553 60.0274 15.5219 59.8465 15.6465C59.8213 15.6641 59.7975 15.6834 59.775 15.7044L59.7318 15.7404C59.7134 15.7547 59.696 15.77 59.6794 15.7863L59.6583 15.8043C59.4238 16.0527 59.1613 16.2735 58.876 16.4624C58.5647 16.6684 58.2302 16.8377 57.8793 16.9667C57.0768 17.2452 56.1998 17.2271 55.4097 16.9158C54.979 16.7528 54.577 16.5233 54.2187 16.2357C53.8826 15.9686 53.5964 15.6451 53.373 15.28C53.1792 14.9681 53.0748 14.6098 53.0709 14.2434C53.0699 13.7811 53.3418 13.4415 53.9005 13.2098ZM56.8443 10.6703C56.4879 10.6703 56.0752 10.6863 55.6161 10.7193C55.1563 10.7519 54.6996 10.8187 54.2499 10.919C53.8065 11.0172 53.3752 11.1625 52.9632 11.3524C52.8488 11.4052 52.7372 11.4638 52.629 11.5282C52.6632 11.3953 52.6964 11.1996 52.7377 10.929C52.7588 10.7842 52.778 10.6594 52.7931 10.6044C52.8924 10.2406 53.0361 9.89017 53.2209 9.56086C53.577 8.91203 54.0949 8.36465 54.7251 7.97105C55.3211 7.60655 56.1758 7.37187 57.0235 7.37187C58.0162 7.37187 58.9988 7.69543 59.5405 8.5143C59.8083 8.91975 59.9079 9.58283 59.5626 10.0122C59.1931 10.4716 58.4632 10.5825 57.9457 10.6264C57.5793 10.6544 57.2088 10.6703 56.8443 10.6703Z" fill="#262626"/>
<path d="M48.7276 5.35365C48.4649 5.26235 48.1763 5.27828 47.9254 5.39794C47.6745 5.5176 47.4818 5.7312 47.3896 5.99177L44.2143 14.8985L41.3258 6.05069C41.3072 5.99867 41.285 5.94795 41.2594 5.8989L41.2513 5.88292C41.2403 5.86195 41.2282 5.84198 41.2141 5.82001C41.0919 5.60417 40.8953 5.43929 40.6604 5.35564C40.5301 5.30976 40.392 5.28983 40.2539 5.29698C40.1158 5.30413 39.9806 5.33823 39.8558 5.39732C39.731 5.45641 39.6193 5.53933 39.5269 5.64134C39.4345 5.74334 39.3633 5.86243 39.3173 5.99177L36.143 14.8965L33.2344 6.01674C33.1479 5.75387 32.9597 5.53586 32.7111 5.41066C32.4625 5.28547 32.174 5.26334 31.909 5.34915C31.644 5.43497 31.4242 5.62169 31.298 5.86824C31.1718 6.11479 31.1495 6.40098 31.236 6.66385L35.099 18.4746C35.1657 18.6821 35.2965 18.8636 35.4728 18.9935C35.6491 19.1234 35.862 19.1951 36.0816 19.1986H36.0987C36.3162 19.1978 36.5282 19.1301 36.7054 19.0049C36.8826 18.8798 37.0164 18.7032 37.0883 18.4996L40.2707 9.58083L43.1743 18.4686C43.241 18.676 43.3716 18.8573 43.5477 18.9872C43.7238 19.1171 43.9365 19.1889 44.1559 19.1926H44.173C44.3906 19.1917 44.6027 19.124 44.78 18.9989C44.9574 18.8737 45.0914 18.6972 45.1637 18.4936L49.37 6.69081C49.4632 6.42899 49.448 6.14117 49.3275 5.89049C49.2071 5.63981 48.9914 5.44674 48.7276 5.35365Z" fill="#262626"/>
<path d="M79.2237 5.29272C78.9371 5.29431 78.6628 5.40849 78.4609 5.61026C78.259 5.81204 78.1459 6.08495 78.1465 6.36924V18.1191C78.1465 18.4025 78.26 18.6743 78.462 18.8746C78.664 19.075 78.938 19.1876 79.2237 19.1876C79.5094 19.1876 79.7834 19.075 79.9855 18.8746C80.1875 18.6743 80.301 18.4025 80.301 18.1191V6.36924C80.3015 6.08495 80.1884 5.81204 79.9865 5.61026C79.7846 5.40849 79.5103 5.29431 79.2237 5.29272Z" fill="#262626"/>
<path d="M69.8038 5.29272C66.7432 5.39258 64.2534 8.03594 64.2534 11.1846V18.1011C64.249 18.2469 64.2741 18.3921 64.3273 18.5281C64.3804 18.664 64.4606 18.7881 64.563 18.8927C64.6654 18.9974 64.7879 19.0806 64.9233 19.1375C65.0587 19.1943 65.2043 19.2236 65.3513 19.2236C65.4984 19.2236 65.6439 19.1943 65.7793 19.1375C65.9147 19.0806 66.0373 18.9974 66.1397 18.8927C66.242 18.7881 66.3222 18.664 66.3754 18.5281C66.4285 18.3921 66.4536 18.2469 66.4492 18.1011V11.1107C66.4492 9.17538 67.9704 7.53364 69.84 7.45175C70.3208 7.42853 70.8012 7.5036 71.2515 7.6723C71.7018 7.841 72.1123 8.09972 72.4576 8.4324C72.8064 8.76381 73.0836 9.16216 73.2722 9.60321C73.4609 10.0443 73.5571 10.5188 73.555 10.9979V18.1011C73.555 18.3898 73.6706 18.6667 73.8764 18.8708C74.0822 19.0749 74.3613 19.1896 74.6523 19.1896C74.9434 19.1896 75.2225 19.0749 75.4283 18.8708C75.6341 18.6667 75.7497 18.3898 75.7497 18.1011V11.0348C75.753 10.2652 75.5995 9.50277 75.2985 8.79338C74.9975 8.08398 74.5551 7.44219 73.9979 6.9065C73.4466 6.36825 72.7901 5.94745 72.0689 5.66994C71.3476 5.39243 70.5768 5.26406 69.8038 5.29272Z" fill="#262626"/>
</g>
<defs>
<clipPath id="clip0">
<rect width="84.8571" height="24" fill="white"/>
</clipPath>
</defs>
</svg>
